<?xml version="1.0" encoding="UTF-8"?>
<svg id="Capa_1" xmlns="http://www.w3.org/2000/svg" version="1.1" viewBox="0 0 48 48">
  <!-- Generator: Adobe Illustrator 30.3.0, SVG Export Plug-In . SVG Version: 2.1.3 Build 182)  -->
  <defs>
    <style>
      .st0 {
        fill: #c8ff01;
      }

      .st1 {
        fill: #999;
      }

      .st2 {
        display: none;
      }
    </style>
  </defs>
  <circle class="st1" cx="24" cy="24" r="22.8"/>
  <g class="st2">
    <path class="st1" d="M24.4,41.8h3.1c1,0,2,0,2.9-.2,3.9-.9,6.3-5,5.2-8.8-.4-1.3-.8-2.6-1.2-3.9-.6-1.9-1.6-3.5-3.3-4.6-.2-.1-.2-.6-.1-.7.3-.6.7-1.2,1.1-1.8,1.5-2.3,1.5-4.7,0-7-1.4-2.3-2.8-4.7-4.2-7-.5-.8-1-1.5-1.6-2.2-1.1-1.1-2.6-1.1-3.7,0-.3.3-.6.6-.8,1-1.7,2.7-3.4,5.5-5,8.3-1.3,2.3-1.3,4.6,0,6.8.4.6.7,1.2,1.1,1.8.3.4.2.7-.2,1-1.2.7-2.1,1.8-2.6,3.1-.7,1.9-1.4,3.8-1.8,5.7-1,4.7,2.3,8.7,7.1,8.7h4.1v-.2Z"/>
    <path class="st0" d="M24.4,41.8h-4.1c-4.8,0-8.1-4-7.1-8.7.4-2,1.1-3.8,1.8-5.7.5-1.3,1.4-2.3,2.6-3.1.5-.3.5-.6.2-1-.4-.6-.7-1.2-1.1-1.8-1.4-2.3-1.4-4.6,0-6.8,1.6-2.8,3.3-5.5,5-8.3.2-.4.5-.7.8-1,1.1-1.1,2.6-1.2,3.7,0,.6.6,1.1,1.4,1.6,2.2,1.4,2.3,2.9,4.6,4.2,7,1.4,2.4,1.4,4.7,0,7-.4.6-.8,1.2-1.1,1.8,0,.2,0,.6.1.7,1.7,1.1,2.7,2.7,3.3,4.6.4,1.3.9,2.6,1.2,3.9,1.1,3.8-1.3,7.9-5.2,8.8-.9.2-1.9.2-2.9.2h-3.1v.2ZM23.5,7.9q-.2,0-.3,0c-1.7,2.8-3.4,5.5-5,8.3-.7,1.3-.6,2.7.2,3.9.7,1.2,1.5,2.4,2.2,3.6.5.9.4,1.2-.6,1.6-1.6.5-2.7,1.6-3.2,3.1-.6,1.6-1.1,3.1-1.5,4.7-.8,2.9,1,5.7,3.9,6.3.8.2,1.7,0,2.6,0,.6,0,1.4.2,1.7-.7.3-.9-.2-1.3-1-1.6,0,0-.2,0-.2,0-.1-.3-.4-.8-.3-1,.2-.3.8-.5,1-.4.9.5,1.8.5,2.7,0,.2,0,.8,0,1,.4.1.2,0,.7-.2,1-.1.2-.6.3-.7.5-.2.4-.5.9-.5,1.3s.6.6,1,.7c.7,0,1.4,0,2.1,0,3.7,0,6-3,5.1-6.6-.4-1.4-.9-2.8-1.3-4.1-.6-1.7-1.7-2.9-3.4-3.5-1-.4-1.1-.7-.5-1.6.6-1.1,1.3-2.2,2-3.2,1.1-1.7,1-3.3,0-5-1.5-2.4-3-4.9-4.4-7.3-.1-.2-.1-.4-.2-.6-.1,0-.2.2-.3.3v8.2c0,.5.3,1,.5,1.4.6.9.6,1.8-.2,2.5-.7.6-1.8.7-2.5,0-.7-.6-.7-1.6-.2-2.5.3-.5.5-1,.5-1.6V7.9Z"/>
    <path class="st0" d="M29,33.7v-.8c0-.7.5-1.1,1.1-1.1s1.1.4,1.2,1.1v1.7c0,.7-.5,1.2-1.1,1.2s-1.1-.5-1.2-1.2v-.8h0Z"/>
    <path class="st0" d="M20,33.8v1c-.1.6-.5.9-1.1.9s-1.1-.4-1.1-1v-1.7c0-.7.5-1.2,1.1-1.2s1.1.4,1.1,1.1v.9h0Z"/>
  </g>
  <g>
    <path class="st0" d="M18.7,8.3c.3,0,.5.3.5.6l.3,1.2c1.6-.3,3.2.1,4.4,1.1,1.3-1,2.9-1.4,4.4-1.1l.3-1.2c0-.3.2-.5.5-.6h.2c.3.1.5.4.4.8l-.3,1.4c2.1.9,3.4,2.9,3.8,5.1,1.2,0,2.2.4,3.1,1.1l1.2-1.2c.2-.2.6-.3.8,0s.3.6,0,.8l-1.2,1.2c.8.9,1.2,2,1.4,3.2.1,1.2-.1,2.3-.6,3.4-.9,2-2.6,3.5-4.7,4.2-.2,1.3-.8,2.5-1.6,3.5v5.2c0,.4-.2.6-.6.6h-4.6c-.3,0-.6-.3-.6-.5s.2-.6.6-.6h4s0-4.9,0-4.9c0-.2,0-.3.2-.5.8-.9,1.3-2.1,1.5-3.3s.2-.5.5-.5c2.8-.8,5-3.6,4.7-6.5s-2.2-4.1-4.5-4-.4,0-.5-.1-.2-.3-.2-.5c-.2-1.4-.8-2.8-1.8-3.7-1.7-1.6-4.2-1.6-6,0s-.6.3-.9,0c-1.8-1.7-4.6-1.6-6.3.2s-1.4,2.2-1.6,3.5-.3.6-.7.6c-2.4,0-4.3,1.8-4.5,4.2s1.9,5.5,4.7,6.4.4.2.4.5c.1,1.3.6,2.5,1.5,3.4,0,0,.2.3.2.4v5s4,0,4,0c.4,0,.6.2.6.6s-.3.6-.6.6h-4.5c-.3,0-.6-.2-.6-.5v-5.4c-.9-1-1.4-2.2-1.6-3.5-1.6-.6-3-1.6-3.9-3.1-.9-1.3-1.3-2.8-1.3-4.3,0-1.2.5-2.4,1.3-3.3l-1.3-1.3v-.2c-.1,0-.1-.3-.1-.3.1-.1.2-.3.4-.4s.4,0,.5,0l1.3,1.3c.9-.7,1.9-1.1,3.1-1.2.4-2.2,1.7-4.2,3.8-5.1l-.4-1.5c0-.3.2-.6.5-.7h.2Z"/>
    <path class="st0" d="M24.6,29.8c-.4-.3-.9-.3-1.3,0-1.5,1.1-3.6.7-4.6-.8s-.4-3.6,1.2-4.5c.1-2.1,1.9-3.8,4-3.8s3.9,1.6,4,3.8c1.7.8,2.2,2.9,1.2,4.5s-3.1,2-4.6.8ZM25.4,28.9c1,.8,2.4.4,3-.7s0-2.4-1.1-2.8-.4-.3-.4-.6c0-1.7-1.3-3-2.9-3s-2.9,1.3-2.8,3-.2.5-.4.6c-1.2.4-1.7,1.8-1.1,2.9s2,1.4,3,.6,1.9-.6,2.7,0Z"/>
    <path class="st0" d="M21.7,19.7c-.7.6-1.7.6-2.3,0-1.5-1.2-1.5-4.2,0-5.4s1.6-.6,2.3,0c1.6,1.2,1.6,4.2,0,5.5ZM20.5,19c.4,0,.6-.3.8-.6.8-1.5,0-3.5-.8-3.4s-.6.3-.7.6c-.8,1.4-.1,3.4.8,3.4Z"/>
    <path class="st0" d="M29.7,16.8c0,1.6-.8,3.4-2.3,3.3s-1-.3-1.4-.7c-1.1-1.3-1.1-3.7,0-4.9s2-.8,2.8,0,.8,1.4.9,2.3ZM27.5,19c.3,0,.6-.3.8-.6.8-1.5,0-3.4-.8-3.4s-1.6,2-.8,3.5.4.6.8.5Z"/>
    <path class="st0" d="M31.6,24.9c-1.2.2-2.1-.6-2.2-1.7-.1-1.9,2-4,3.9-3.8s1.5.7,1.6,1.6c.2,1.7-1.4,3.6-3.3,3.9ZM33.7,21.8c.1-.3.1-.7,0-1s-.5-.3-.8-.2c-1.7.3-2.8,2.5-2,3.1s2.5-.4,2.9-1.9Z"/>
    <path class="st0" d="M18.7,23.2c0,1-.8,1.7-1.8,1.7s-1.3-.2-1.9-.6c-1.6-1-2.5-3.2-1.3-4.4s1-.6,1.7-.5c1.8.3,3.4,2,3.3,3.8ZM17.5,23.3c0-.3,0-.6,0-.9-.6-1.5-2.4-2.3-3-1.7s.4,2.7,2.2,3,.7,0,.9-.5Z"/>
    <path class="st0" d="M23.8,36.6c.3-.1.6,0,.7.3s0,.6-.3.7-.6,0-.7-.3,0-.7.3-.8Z"/>
  </g>
  <g>
    <path class="st0" d="M221.3-159.4c-17.8-3.4-30.4-13.4-50.2-5-5.2,2.2-10.8,4.2-16.4,4.6-8.2.7-15.1-3.5-17.8-11s-1.8-11.2-.2-16.9l5.2-18.7c5.6-20.1-14.4-40-6.1-78.1,5.7-26.4,18.3-51.4,37.6-70.8,37-37.2,98-60.9,149.6-45.7,11.3-7.2,27-4.5,32.7,7.7l4,.3,7.6-9.8c-3.8-4-7.6-7.7-11.5-10.8-30.4,10.7-63.7,10.2-92.9-2.9l-29.9-13.5c-8.3-3.7-16.8-6.1-25.9-6.4s-4.6-.6-5.5-3,.4-4.3,2.7-5.7c32.3-20.7,70.9-35.7,108.8-23.8,18.1,5.7,33.5,16.9,43.2,33.1s4.3,9.8,4.5,14.8c1.2.4,3.3,1.3,4.2,2.2l8,8.3c3.2-5,9.2-5.3,12.9-2.1,4,3.5,3.4,9.5-.7,13s-9.3,9.2-12.2,14.8l1.2,8.2c10.2,7.8,12.2,22.4,2.6,31.8,2.1,5.9,2.7,11.7.6,18.1,29.7,8.5,56.4,25.9,71.8,53.2s11.7,38.2,7.2,58.8-14.3,39.5-27.7,55.9l8.9,3.4c4.4,1.7,7.6,7.5,6.6,12.4s-5.4,9.2-10.2,11.5c-20.8,10.2-42.7,17.3-65.8,20.9-45.9,7.1-92-3.4-124.1-37.6s-13.9-9.6-22.7-11.3ZM347.9-420c-20.2-9.5-41.2-15.3-63.6-17.8s-2.4-3.4-2.3-4.7,1.8-3.6,3.7-3.4c22.3,1.9,43.1,8.3,63.7,17.7-5.9-12.7-15.8-21.5-27.4-27.9-33.5-16.8-71.9-7.5-103.8,11.7,9.7,2.7,17.8,5.6,26.4,9.6l19.3,9.2c23.2,11,48.9,13.8,73.9,8l10.1-2.3ZM218.9-269.5c12.7-27.2,37.7-46.5,67.2-52.5,26.8-9.8,55.2-11.6,83.3-5.6,3.9-11-5.6-17.3-.6-20.8s5.8-6.9,5.3-11.7c-.4-3.8-2.6-7.6-6.7-9.6-5.5-2.8.8-9.5-4-13.6-6-5-11.9,3.6-15.2-5.5-2.8-7.8-13.4-10.8-19.9-5.6-2.2,1.7-3.2,2.6-6.1,1.7-48.8-15.3-106.9,7.3-142,42.6-23.9,24.1-43.4,66.7-36.7,100.2,4.4,21.6,15.9,36,4.7,57.3-2.4,4.6-3.7,9.7-2.7,14.8s3.9,6.8,8.6,6.4c11.6-1.2,20.9-17,42-9.7l16.7,5.8c5.9,2.1,11.8,3.1,19,2.7-20.8-26.8-27.5-65.2-12.8-96.8ZM401.8-163.6c15.7-8.5,28.9-20.1,38-35.3,13.5-22.5,13.6-49.6.2-72.2-9.2-15.5-22.6-27.5-38.8-36-37.3-19.6-82.8-20.6-121.2-3.2-17.7,8.1-32.8,20-43.4,36-15.1,22.8-16.1,50.9-2.3,74.4s17.9,23.3,30.6,31.4c40.1,25.9,95,27.3,136.8,4.8ZM391.1-149.1c-50.5,19.3-111.8,10.8-150.5-28.1,22.1,38.8,65.8,59.9,110.1,53.6,30.4-4.3,57.9-20.9,76.1-46.3-11.6,8.5-22.2,15.5-35.7,20.8Z"/>
    <path class="st0" d="M186.3-267.4c.2,3.3-1.7,5.7-4.4,5.7s-4.4-2.3-4.3-5.4,1.4-4.9,3.5-5.2,5,1.6,5.1,4.9Z"/>
    <path class="st0" d="M340.9-380.5c2.8,1.8,2.5,5.3.6,7.2s-4.7,1.5-6.4.3-2.4-4.8-.5-6.9,4.7-1.6,6.3-.6Z"/>
    <path class="st0" d="M348.1-349.1c-.8,2.1-3.7,2.8-5.8,2s-3.3-3.4-2.6-5.9,3.7-4,6.1-3,3.6,3.6,2.3,6.9Z"/>
    <path class="st0" d="M210.7-185.2c-1.5-.5-2.9-2.5-3-3.7s.5-4,1.5-4.7c1.9-1.3,4.5-1.2,6.1.2s1.7,4,.9,6-3.4,3-5.5,2.2Z"/>
    <path class="st0" d="M264.4-326c-4-.5-5.3-5-3.5-7.9s4.2-2,6-1,2.3,3.1,2.2,5.1-2.2,4.1-4.7,3.7Z"/>
    <path class="st0" d="M209.5-339.7c-1.8,1.3-4.9,1.3-6.2-.2s-.8-4.7.9-6.2,4.9-1.6,6.5.2,1.3,4.5-1.2,6.3Z"/>
    <path class="st0" d="M178.1-214.3c2.1-.4,4.5,1.5,5,3.1.8,2.8-.4,5.1-3.4,5.5s-4.5-.9-5.2-3.6,1-4.6,3.7-5Z"/>
    <path class="st0" d="M283.3-372.3c.2,1.3-1.6,3.8-2.9,4s-4.1-.7-4.7-2.2,0-4.7,1.3-5.3l6.4,3.5Z"/>
    <path class="st0" d="M316.5-165.3c-19,6.7-38.8-4.2-42.8-24.2-20.2.1-33.9-10.5-37.5-30.3-1.1-6,1.2-11.5,5.3-15.4-4.8-5.9-5.6-13.2-4-20.3,3.1-13.6,14-23.4,28.2-24.3.8-20.6,26.3-32.5,45.7-25.4,13-12.6,32.3-16.4,48.8-8.7,5.7,2.7,9.9,6.9,12.2,12.7,9.3-2.3,18.5-2.5,27,1.2,12.2,5.3,19.6,17.4,18,30.9,10.4,4.9,18.1,14.2,19.5,25.9s-4.5,23.6-14.9,30.4c2.6,15-5.7,29.2-19.6,35.5s-20.8,5.8-31.9,4.5c-12,18.4-37.2,22.1-54.1,7.3ZM340.8-255.1l22.9-44.2c-1.5-3.2-4.5-5.9-7.9-7.2-13.8-5.4-29.3-2-39.9,9.1,5.4,15.3,12.1,29.6,19.7,44,.9.4,2.6.9,3.4.7s1.1-1.2,1.8-2.4ZM325.6-248.9l2.5-1.7c-8.4-15.3-15.5-30.6-21.3-47.1-11.3-2.8-23,.9-29.8,10s-2.9,6.2-1.7,9.2l50.3,29.6ZM354.9-248.8l54-20.1c1.9-11.4-5.3-22-16.6-24.5-7.9-1.8-15.7-.5-23,3l-20.5,39.9,6.2,1.8ZM320.7-241.6l-49.1-29.1c-6-3.5-15.4,1.3-19.5,5.3-7.4,7.2-9.9,20.9-1.5,26.3l70.1-2.5ZM417.6-220.4c5.8-3.5,10.3-10,11-17.5,1-11-6.1-20.9-16.1-24.2-18,7.3-35,13.4-53,19.5l-.2,6.2c19.2,6,37.8,11.4,58.3,16ZM255.4-203.4c7.3,5.2,15.7,6.5,24,4.4,12.2-13,25.7-23.4,40.8-33.3l-71.4,2.4c-3,.1-4.1,5.6-3.8,7.8,1.1,7.4,4.7,13.8,10.5,18.7ZM403.9-188c8.1-5.9,12.1-15.6,9.6-25-18.9-3.8-37-9.1-55.6-14.7l-1.1,2.6c6.3,14.7,11.9,28.8,16.8,44.1,10.5,1,21.4-.4,30.3-6.9ZM314.8-173.8l14.5-49.1c-.9-1.1-2.4-1.9-3.9-2.4-15.8,9.9-29.8,21.2-42.7,34.5,3.2,14.5,18.3,22.8,32.1,16.9ZM364.8-179.9c-4.3-14.2-9.5-26.8-14.9-39.9-4.4.6-8.1.3-12.5-.7l-14.1,49c6.9,5.7,15.2,8.2,24.3,5.8s14.4-7,17.3-14.2Z"/>
  </g>
</svg>